<svg width="256" height="256" viewBox="0 0 256 256" xmlns="http://www.w3.org/2000/svg">
  <rect width="256" height="256" rx="60" fill="#242938"/>

  <g transform="translate(25, 25) scale(0.39)">
    <path d="M222,0 L222,99 L86,178 L0,128 L222,0 Z" fill="#A1C535"/>
    <path d="M444,128 L358,178 L222,99 L222,0 L444,128 L444,128 Z" fill="#ADD439"/>
    <path d="M444,384 L358,334 L358,178 L444,128 L444,384 L444,384 Z" fill="#1B6AC6"/>
    <path d="M222,512 L222,413 L358,334 L444,384 L222,512 L222,512 Z" fill="#2E90E8"/>
    <path d="M0,384 L86,334 L222,413 L222,512 L0,384 L0,384 Z" fill="#EA205E"/>
    <path d="M0,128 L86,178 L86,334 L0,384 L0,128 L0,128 Z" fill="#A5073E"/>
    <path d="M86,178 L222,99 L358,178 L222,256 L86,178 Z" fill="#F1F6E2"/>
    <path d="M222,256 L358,178 L358,334 L222,413 L222,256 Z" fill="#CEDBE6"/>
    <path d="M86,178 L222,256 L222,413 L86,334 L86,178 Z" fill="#FFFFFF"/>
  </g>
</svg>
