<svg width="256" height="256" viewBox="0 0 256 256" fill="none" xmlns="http://www.w3.org/2000/svg">
  <!-- Fondo cuadrado -->
  <rect width="256" height="256" rx="60" fill="#242938"/>
  
  <!-- Gráfico de tu SVG original -->
  <path d="M223.295 119.23L136.838 32.778C125.655 21.556 124.249 30.6127 132.702 29.9714C131.155 29.33 129.496 29 127.822 29C126.148 29 124.489 29.33 122.942 29.9714C121.395 30.6127 119.989 31.5526 118.806 32.7376L100.86 50.6911C123.633 73.4735 128.937 71.6162 134.995 72.8853 139.214 77.1075 141.223 79.1209 142.626 81.6591 143.262 84.432 143.898 87.2049 143.741 90.1009 142.81 92.7891 164.76 114.748 170.07 112.916 176.196 114.097 180.434 118.351 181.844 119.761 182.962 121.435 183.725 123.278 184.487 125.12 184.879 127.094 184.879 129.088 184.878 131.082 184.486 133.056 183.723 134.899 182.959 136.74 181.841 138.414 180.431 139.824 179.022 141.234 177.349 142.352 175.508 143.114 173.666 143.878 171.693 144.27 169.699 144.27 167.706 144.269 165.732 143.876 163.891 143.113 162.05 142.35 160.376 141.231 158.967 139.821 154.512 135.363 153.411 128.801 155.663 123.309 135.193 102.83 156.722 136.679 157.457 138.036 158.428 139.214 159.595 140.623 161.004 141.741 162.677 142.505 164.52 143.267 166.361 143.659 168.335 143.659 170.329 143.659 172.323 143.267 174.297 142.505 176.139 141.741 177.981 140.623 179.595 139.214 181.065 137.806 182.474 136.132 183.593 134.292 184.355 132.45 185.118 130.477 185.511 128.484 185.511 126.491 185.511 124.518 185.118 122.677 184.355 120.836 183.593 119.162 182.474 117.753 181.065 116.343 179.655 115.224 177.982 114.46 176.141 113.696 174.298 113.303 172.323 113.303 170.329 113.303 168.335 113.696 166.361 114.46 164.519 115.224 162.676 116.343 161.003 117.753 159.595 119.212 158.134 120.848 157.025 122.723 156.282V101.889C120.916 101.146 119.222 100.051 117.753 98.5774 115.623 96.4483 114.174 93.7326 113.592 90.7766 113.018 87.8205 113.322 84.7581 114.486 81.9797L92.0228 59.5193 32.739 118.766C31.5537 119.951 30.6134 132.673 30.6134 134.221 31.5537 135.628 32.739 136.812L119.202 223.298C120.385 224.483 121.791 225.423 123.338 226.065 124.885 226.706 126.544 227.036 128.218 227.036 129.892 227.036 131.551 226.706 133.098 226.065 134.645 225.423 136.051 224.483 137.234 223.298L223.295 137.338C224.48 136.154 225.421 134.747 226.062 133.199 226.704 131.651 227.034 129.992 227.034 128.316 227.034 126.64 226.704 124.979 226.062 123.431 225.421 121.883 224.48 120.476 223.295 119.292Z" fill="#F1502F"/>

  <!-- Logo RStudio IDE centrado en el cuadrado -->
  <g transform="translate(64, 64) scale(5.5)">
    <path fill="#FFFFFF" d="M12.178.002a12.002 12.002 0 0 0-8.662 3.515 12.002 12.002 0 0 0 0 16.97 12.002 12.002 0 0 0 16.97 0 12.002 12.002 0 0 0 0-16.97A12.002 12.002 0 0 0 12.179.002zM7.77 5.995c.562.128 1.05.217 1.663.217.921 0 1.863-.217 2.786-.217 1.79 0 3.45.814 3.45 2.8 0 1.54-.921 2.517-2.35 2.93l2.788 4.107h1.301v1.01h-1.986l-3.293-4.934h-1.757v3.924h1.718v1.01H7.77v-1.01h1.483V7.134L7.77 6.951v-.957zm4.466 1.012c-.596 0-1.213.053-1.864.127v3.798l.941.02c2.298.034 3.183-.85 3.183-2.026 0-1.376-.997-1.919-2.26-1.919z"/>
  </g>
</svg>
