<?xml version="1.0" encoding="UTF-8" standalone="no"?>
<svg
   version="1.1"
   viewBox="0 0 50 50"
   xml:space="preserve"
   id="svg10"
   sodipodi:docname="RISC-V_icon.svg"
   width="50"
   height="50"
   inkscape:version="1.4.2 (f4327f4, 2025-05-13)"
   inkscape:export-filename="RISC-V-logo-square.png"
   inkscape:export-xdpi="516.01147"
   inkscape:export-ydpi="516.01147"
   xmlns:inkscape="http://www.inkscape.org/namespaces/inkscape"
   xmlns:sodipodi="http://sodipodi.sourceforge.net/DTD/sodipodi-0.dtd"
   xmlns="http://www.w3.org/2000/svg"
   xmlns:svg="http://www.w3.org/2000/svg"
   xmlns:rdf="http://www.w3.org/1999/02/22-rdf-syntax-ns#"
   xmlns:cc="http://creativecommons.org/ns#"
   xmlns:dc="http://purl.org/dc/elements/1.1/"><sodipodi:namedview
     id="namedview10"
     pagecolor="#ffffff"
     bordercolor="#666666"
     borderopacity="1.0"
     inkscape:showpageshadow="2"
     inkscape:pageopacity="0.0"
     inkscape:pagecheckerboard="0"
     inkscape:deskcolor="#d1d1d1"
     inkscape:zoom="10.625"
     inkscape:cx="12.705882"
     inkscape:cy="16.235294"
     inkscape:window-width="1920"
     inkscape:window-height="1009"
     inkscape:window-x="-8"
     inkscape:window-y="-8"
     inkscape:window-maximized="1"
     inkscape:current-layer="g9"
     inkscape:export-bgcolor="#ffffffff" /><title
     id="title1">RISC-V icon</title><metadata
     id="metadata1"><rdf:RDF><cc:Work
         rdf:about=""><dc:format>image/svg+xml</dc:format><dc:type
           rdf:resource="http://purl.org/dc/dcmitype/StillImage" /><dc:title>RISC-V icon</dc:title></cc:Work></rdf:RDF></metadata><defs
     id="defs1"><inkscape:path-effect
       effect="fillet_chamfer"
       id="path-effect24"
       is_visible="true"
       lpeversion="1"
       nodesatellites_param="F,0,0,1,0,0,0,1 @ F,0,0,1,0,0,0,1 @ F,0,0,1,0,9.9257517,0,1 @ F,0,0,1,0,0,0,1 | F,0,0,1,0,0,0,1 @ F,0,0,1,0,0,0,1 @ F,0,0,1,0,0,0,1 @ F,0,0,1,0,0,0,1 @ F,0,0,1,0,0,0,1 @ F,0,0,1,0,9.811053,0,1 @ F,0,0,1,0,0,0,1 @ F,0,0,1,0,0,0,1 @ F,0,0,1,0,0,0,1"
       radius="0"
       unit="px"
       method="auto"
       mode="F"
       chamfer_steps="1"
       flexible="false"
       use_knot_distance="true"
       apply_no_radius="true"
       apply_with_radius="true"
       only_selected="false"
       hide_knots="false" /><inkscape:path-effect
       effect="fillet_chamfer"
       id="path-effect23"
       is_visible="true"
       lpeversion="1"
       nodesatellites_param="F,0,0,1,0,0,0,1 @ F,0,0,1,0,0,0,1 @ F,0,0,1,0,0,0,1 @ F,0,0,1,0,0,0,1 @ F,0,0,1,0,0,0,1 @ F,0,0,1,0,10.174035,0,1 @ F,0,0,1,0,0,0,1 @ F,0,0,1,0,0,0,1"
       radius="0"
       unit="px"
       method="auto"
       mode="F"
       chamfer_steps="1"
       flexible="false"
       use_knot_distance="true"
       apply_no_radius="true"
       apply_with_radius="true"
       only_selected="false"
       hide_knots="false" /><clipPath
       id="cvfa"><path
         d="m 12,344 h 72 v 56.47 H 12 Z"
         id="path1" /></clipPath><mask
       maskUnits="userSpaceOnUse"
       id="mask24"><path
         d="m 55.11,360.5 13.32,18.6 V 368.85575 A 9.9258487,9.9258487 45.00028 0 0 58.504248,358.9299 L 54.1,358.92986 Z m -25.95,19.49 h 7.108 c 5.081,0 7.677,3.699 7.677,7.283 0,3.588 -2.486,7.287 -7.677,7.287 h -9.704 v -25.81909 a 9.811053,9.811053 135 0 1 9.811053,-9.81105 H 44.284 L 29.044,377.19 v 2.801 z"
         style="fill:#2a3172"
         id="path24"
         sodipodi:nodetypes="ccccccssscccccc"
         inkscape:path-effect="#path-effect24"
         inkscape:original-d="m 55.11,360.5 13.32,18.6 v -20.17 l -14.33,-1.4e-4 z m -25.95,19.49 h 7.108 c 5.081,0 7.677,3.699 7.677,7.283 0,3.588 -2.486,7.287 -7.677,7.287 h -9.704 v -35.63014 h 17.72 L 29.044,377.19 v 2.801 z"
         transform="matrix(6.3689191,0,0,-6.4194939,-358.39985,2559.8393)" /></mask></defs><g
     inkscape:groupmode="layer"
     id="layer1"
     inkscape:label="Layer 1"
     transform="translate(1.3664e-6,1.7897e-5)"><g
       transform="matrix(1.1941724,0,0,-1.2036551,-31.721997,482.02774)"
       id="g10"><g
         clip-path="url(#cvfa)"
         id="g9"><rect
           width="1418.3359"
           height="265.93832"
           rx="62.329292"
           fill="#394aab"
           id="rect1"
           x="-188.828"
           y="-10.293257"
           style="display:inline;opacity:1;stroke-width:1.03882"
           transform="matrix(0.15701251,0,0,-0.15577552,56.273261,398.7603)"
           mask="url(#mask24)"
           sodipodi:insensitive="true" /><path
           d="m 49.92,387.3 c 0,-5.937 -3.726,-11.54 -10.94,-12.77 l 10.16,-11.88 1.014,1.346 18.28,25.65 v 0.69597 A 10.174035,10.174035 135 0 1 58.259965,400.516 H 38.864 c 7.334,-1.231 11.06,-7.172 11.06,-13.22 z"
           style="fill:#f6b21a"
           id="path2"
           inkscape:path-effect="#path-effect23"
           inkscape:original-d="m 49.92,387.3 c 0,-5.937 -3.726,-11.54 -10.94,-12.77 l 10.16,-11.88 1.014,1.346 18.28,25.65 v 10.87 h -29.57 c 7.334,-1.231 11.06,-7.172 11.06,-13.22 z" /><g
           id="g1"
           transform="matrix(0.15701251,0,0,-0.15577552,56.273261,398.7603)" /><path
           style="opacity:1;fill:#243a6d;fill-opacity:1;stroke-width:0.112847;stroke-dasharray:none"
           d="M 10.023529,49.825082 C 9.2722165,49.716816 7.9504909,49.334012 7.1460683,48.9917 3.3553116,47.378588 0.70831963,43.809653 0.19792572,39.623529 0.06027369,38.494542 0.05441634,11.752572 0.19155575,10.541176 0.29748327,9.6054854 0.65530732,8.153746 0.93693195,7.5170868 l 0.18189525,-0.4112044 5.0641159,0.00214 c 7.0047959,0.00295 7.9700949,0.103457 9.8641159,1.0270134 1.659674,0.809285 2.870563,2.0234862 3.713636,3.7237932 0.706653,1.425176 0.886388,2.233581 0.889337,4 0.0021,1.233077 -0.03108,1.582611 -0.214151,2.258776 -0.844665,3.119743 -3.117991,5.381953 -6.193331,6.163048 -1.12449,0.285605 -1.962232,0.327426 -6.5954912,0.329252 l -4.7294117,0.0019 0.00246,1.717646 0.00246,1.717647 9.0328319,10.905052 c 4.968057,5.997779 9.032831,10.921307 9.032831,10.941176 0,0.07457 -10.423893,0.0097 -10.964706,-0.0682 z"
           id="path25"
           transform="matrix(0.83740003,0,0,-0.83080278,26.564,400.47)" /><path
           style="opacity:1;fill:#243a6d;fill-opacity:1;stroke-width:0.112847;stroke-dasharray:none"
           d="m 33.035294,49.879611 c 0,-0.164093 2.077174,-3.139605 8.960656,-12.835972 4.247643,-5.983413 7.783128,-10.942463 7.85663,-11.02011 0.115493,-0.122006 0.128836,0.79179 0.09826,6.729412 -0.03401,6.604166 -0.04312,6.903435 -0.234923,7.717647 -1.01675,4.316247 -3.883222,7.544126 -7.892201,8.887259 -1.457511,0.48831 -2.281229,0.570766 -5.706065,0.571186 -1.695294,2.08e-4 -3.082353,-0.02203 -3.082353,-0.04942 z"
           id="path26"
           transform="matrix(0.83740003,0,0,-0.83080278,26.564,400.47)" /></g></g></g></svg>
