<?xml version="1.0" encoding="UTF-8" standalone="no"?>
<svg
   version="1.1"
   viewBox="0 0 48 48"
   xml:space="preserve"
   id="svg10"
   sodipodi:docname="risc_v.svg"
   width="48"
   height="48"
   inkscape:version="1.4.2 (f4327f4, 2025-05-13)"
   inkscape:export-filename="RISC-V-logo-square.svg"
   inkscape:export-xdpi="90.239998"
   inkscape:export-ydpi="90.239998"
   xmlns:inkscape="http://www.inkscape.org/namespaces/inkscape"
   xmlns:sodipodi="http://sodipodi.sourceforge.net/DTD/sodipodi-0.dtd"
   xmlns="http://www.w3.org/2000/svg"
   xmlns:svg="http://www.w3.org/2000/svg"
   xmlns:rdf="http://www.w3.org/1999/02/22-rdf-syntax-ns#"
   xmlns:cc="http://creativecommons.org/ns#"
   xmlns:dc="http://purl.org/dc/elements/1.1/"><sodipodi:namedview
     id="namedview10"
     pagecolor="#ffffff"
     bordercolor="#666666"
     borderopacity="1.0"
     inkscape:showpageshadow="2"
     inkscape:pageopacity="0.0"
     inkscape:pagecheckerboard="0"
     inkscape:deskcolor="#d1d1d1"
     inkscape:zoom="11.313709"
     inkscape:cx="30.538174"
     inkscape:cy="18.252194"
     inkscape:window-width="1920"
     inkscape:window-height="1009"
     inkscape:window-x="-8"
     inkscape:window-y="-8"
     inkscape:window-maximized="1"
     inkscape:current-layer="g9"
     inkscape:export-bgcolor="#ffffffff"><inkscape:page
       x="0"
       y="0"
       width="48"
       height="48"
       id="page1"
       margin="0"
       bleed="0" /></sodipodi:namedview><title
     id="title1">RISC-V icon</title><metadata
     id="metadata1"><rdf:RDF><cc:Work
         rdf:about=""><dc:format>image/svg+xml</dc:format><dc:type
           rdf:resource="http://purl.org/dc/dcmitype/StillImage" /><dc:title>RISC-V icon</dc:title></cc:Work></rdf:RDF></metadata><defs
     id="defs1"><inkscape:path-effect
       effect="fillet_chamfer"
       id="path-effect24"
       is_visible="true"
       lpeversion="1"
       nodesatellites_param="F,0,0,1,0,0,0,1 @ F,0,0,1,0,0,0,1 @ F,0,0,1,0,9.9257517,0,1 @ F,0,0,1,0,0,0,1 | F,0,0,1,0,0,0,1 @ F,0,0,1,0,0,0,1 @ F,0,0,1,0,0,0,1 @ F,0,0,1,0,0,0,1 @ F,0,0,1,0,0,0,1 @ F,0,0,1,0,9.811053,0,1 @ F,0,0,1,0,0,0,1 @ F,0,0,1,0,0,0,1 @ F,0,0,1,0,0,0,1"
       radius="0"
       unit="px"
       method="auto"
       mode="F"
       chamfer_steps="1"
       flexible="false"
       use_knot_distance="true"
       apply_no_radius="true"
       apply_with_radius="true"
       only_selected="false"
       hide_knots="false" /><inkscape:path-effect
       effect="fillet_chamfer"
       id="path-effect23"
       is_visible="true"
       lpeversion="1"
       nodesatellites_param="F,0,0,1,0,0,0,1 @ F,0,0,1,0,0,0,1 @ F,0,0,1,0,0,0,1 @ F,0,0,1,0,0,0,1 @ F,0,0,1,0,0,0,1 @ F,0,1,1,0,9.5305899,0,1 @ F,0,0,1,0,0,0,1 @ F,0,0,1,0,0,0,1"
       radius="0"
       unit="px"
       method="auto"
       mode="F"
       chamfer_steps="1"
       flexible="false"
       use_knot_distance="true"
       apply_no_radius="true"
       apply_with_radius="true"
       only_selected="true"
       hide_knots="false" /><clipPath
       id="cvfa"><path
         d="m 12,344 h 72 v 56.47 H 12 Z"
         id="path1" /></clipPath><mask
       maskUnits="userSpaceOnUse"
       id="mask24"><path
         d="m 55.11,360.5 13.32,18.6 V 368.85575 A 9.9258487,9.9258487 45.00028 0 0 58.504248,358.9299 L 54.1,358.92986 Z m -25.95,19.49 h 7.108 c 5.081,0 7.677,3.699 7.677,7.283 0,3.588 -2.486,7.287 -7.677,7.287 h -9.704 v -25.81909 a 9.811053,9.811053 135 0 1 9.811053,-9.81105 H 44.284 L 29.044,377.19 v 2.801 z"
         style="fill:#2a3172"
         id="path24"
         sodipodi:nodetypes="ccccccssscccccc"
         inkscape:path-effect="#path-effect24"
         inkscape:original-d="m 55.11,360.5 13.32,18.6 v -20.17 l -14.33,-1.4e-4 z m -25.95,19.49 h 7.108 c 5.081,0 7.677,3.699 7.677,7.283 0,3.588 -2.486,7.287 -7.677,7.287 h -9.704 v -35.63014 h 17.72 L 29.044,377.19 v 2.801 z"
         transform="matrix(6.3689191,0,0,-6.4194939,-358.39985,2559.8393)" /></mask></defs><g
     inkscape:groupmode="layer"
     id="layer1"
     inkscape:label="Layer 1"
     transform="translate(1.3664e-6,1.7897e-5)"><g
       transform="matrix(1.1941724,0,0,-1.2036551,-31.721997,482.02774)"
       id="g10"><g
         clip-path="url(#cvfa)"
         id="g9"><path
           id="rect4"
           style="display:inline;fill:#ffffff;stroke-width:0.832937"
           transform="matrix(1,0,0,-1,-3.0682337e-7,-1.7471782e-6)"
           d="m 40.014738,-400.47487 v 0.002 l -3.24656,0.003 a 10.202579,10.202579 0 0 0 -9.379862,6.18883 c 0.286476,0.0354 0.571071,0.0862 0.847213,0.172 0.187413,0.0599 0.389134,0.0994 0.569171,0.18012 v 0.002 c 0.189805,0.0579 0.375299,0.12108 0.56917,0.16713 2.474649,0.5878 0.219617,1.42716 -1.311709,2.30094 0.03903,0.50215 -0.04332,1.2065 -0.101404,1.8758 0.0032,0.001 0.0066,0.002 0.0098,0.003 0.01891,0.006 0.03699,0.0107 0.05561,0.0178 v 0.002 c -0.0017,-1.9e-4 -0.0074,-9.8e-4 -0.0098,-0.002 -0.0188,-0.005 -0.03702,-0.01 -0.05561,-0.0146 -0.120794,1.3954 -0.135151,2.63373 1.275727,1.55613 0.08821,-0.12358 0.09292,-0.11361 0.171732,-0.34563 -0.01636,0.0811 -0.03029,0.16328 -0.04252,0.24502 0.01116,-0.009 0.02302,-0.0182 0.03435,-0.0276 0.02242,-0.0185 0.07549,-0.0668 0.08995,-0.0779 v 0.002 l -0.0016,0.003 c -0.02799,0.0301 -0.06002,0.0562 -0.09159,0.0827 l -0.0016,0.002 c -0.01046,0.01 -0.02046,0.0197 -0.03108,0.0292 -0.0098,0.0667 -0.0183,0.13393 -0.02453,0.20121 -0.01766,0.19073 -0.02304,0.38141 -0.0278,0.5728 -0.0054,0.29762 -0.0072,0.59481 -0.0082,0.89247 -8.18e-4,0.32169 2.07e-4,0.64379 0,0.96548 0.0102,0.36222 -0.02356,0.72318 -0.06706,1.08232 -0.03212,0.32062 -0.07915,0.63748 -0.147199,0.9525 -0.05105,0.19635 -0.09091,0.39518 -0.145564,0.59065 -0.04637,0.19325 -0.119413,0.42068 -0.189723,0.62472 -0.0094,0.0266 -0.01977,0.053 -0.02944,0.0795 -0.04195,0.11518 -0.08441,0.22926 -0.127573,0.34401 -0.0025,0.007 -0.0106,0.0239 -0.01308,0.0308 v 0.003 h 0.0016 v -0.003 c 0.0088,-0.0121 0.01221,-0.0268 0.01799,-0.0406 -0.06348,0.24327 -0.133879,0.48498 -0.189723,0.7302 -0.03066,0.13405 -0.04303,0.27043 -0.05234,0.40729 -0.01193,0.20218 -0.01383,0.4044 -0.01636,0.60687 -0.0025,0.22908 -0.0027,0.45892 -0.0033,0.68801 -4.86e-4,0.26607 -0.0016,0.53228 -0.0016,0.79835 -5.8e-5,0.23785 1.3e-5,0.47612 0,0.71397 0.0057,0.15977 -0.01413,0.32229 0.01636,0.48031 0.03999,0.29446 0.0874,0.5873 0.132479,0.88111 0.03232,0.25841 0.104527,0.50888 0.155377,0.76427 0.05807,0.30408 0.09201,0.61161 0.114488,0.92005 0.01555,0.25284 0.01853,0.50617 0.02126,0.7594 -0.0061,0.22881 0.0069,0.45515 0.0229,0.68314 0.02115,0.27452 0.0338,0.55079 0.04252,0.82594 3e-6,0.21256 0.0061,0.42311 0.02617,0.63446 0.02249,0.21954 0.03782,0.43999 0.04743,0.66042 0.0174,0.28238 -0.0021,0.56397 -0.02453,0.84541 0.02514,0.21262 0.03762,0.4395 0.03762,0.67827 v 0.6296 c -0.0026,0.17772 0.01532,0.35467 0.03925,0.53061 0.03372,0.20449 0.0883,0.4048 0.140657,0.60525 0.05498,0.15285 0.08506,0.31968 0.158648,0.4657 0.09321,0.18306 0.185354,0.36661 0.281315,0.54846 0.165782,0.33901 0.325169,0.68073 0.489028,1.02066 0.106643,0.21746 0.223275,0.42835 0.3451,0.6377 0.168583,0.31885 0.349826,0.63084 0.53646,0.93952 0.198514,0.33492 0.424275,0.65361 0.65749,0.96549 0.151902,0.21775 0.14615,0.19879 0.245332,0.28559 l -0.0016,-0.003 v -0.002 -0.003 h 0.0016 0.0016 0.0016 c 0.04316,0.0192 0.269926,0.18238 0.291127,0.18985 h 0.0016 v -0.003 c -0.0026,-0.003 -0.01047,-0.009 -0.0229,-0.0195 0.310222,0.14476 0.628605,0.27021 0.943711,0.40404 0.228403,0.0943 0.460284,0.17874 0.701649,0.23366 0.323469,0.0825 0.649408,0.1597 0.976422,0.22718 0.21462,0.0451 0.425396,0.10656 0.64277,0.13792 0.208621,0.0228 0.41717,0.052 0.624779,0.0828 0.258747,0.038 0.520151,0.0528 0.780156,0.0795 0.236028,0.0342 0.473451,0.0498 0.711463,0.0617 0.220161,0.01 0.44042,0.0145 0.66076,0.0179 0.254482,-0.004 0.508076,0.0147 0.76053,0.0454 0.24809,0.0289 0.484779,0.10564 0.726183,0.16389 0.121489,-0.0119 0.22671,0.0805 0.343464,0.0941 h 0.0016 v 0.003 h 0.0016 c 0.229512,0.0531 0.455921,0.11913 0.680387,0.18985 0.158944,0.0548 0.315562,0.10898 0.471038,0.16389 0.201683,0.0627 0.397312,0.14524 0.587161,0.24016 -0.0099,-0.004 -0.02575,-0.0102 -0.05724,-0.0243 -1.745874,-0.78282 -1.500125,0.21212 -1.004226,1.44741 0.04973,9.2e-4 0.09915,0.002 0.148835,0.003 0.217931,0.005 0.434995,0.0185 0.652583,0.0308 0.21331,0.0169 0.427329,0.0289 0.641134,0.0373 0.151555,0.006 0.303039,0.009 0.454682,0.0114 0.06993,-0.005 0.139352,-0.009 0.20935,-0.013 0.08569,-0.004 0.17263,-0.007 0.258417,-0.008 0.09469,-0.004 0.188723,0.005 0.282949,0.013 0.01033,7.5e-4 0.02074,8.7e-4 0.03108,0.002 0.439743,0.0321 0.745596,0.17994 0.922448,0.37322 h 10.256515 c 0.402777,-0.64752 1.27702,-1.20449 2.667577,-1.41983 0.274219,-0.0425 0.550655,-0.0623 0.827587,-0.0763 0.286289,-0.01 0.570683,-0.0514 0.855391,-0.0811 0.326149,-0.0252 0.650767,-0.0653 0.976421,-0.0957 0.148359,-0.0136 0.297197,-0.029 0.444869,-0.0503 v -0.002 c 0.02791,-0.0119 0.06036,-0.0144 0.08996,-0.0211 0.2301,-0.0508 0.460651,-0.10108 0.68693,-0.16713 0.17973,-0.0528 0.36208,-0.1 0.536459,-0.16876 0.199294,-0.0829 0.396287,-0.17027 0.588797,-0.26774 0.250946,-0.13179 0.490699,-0.28265 0.737632,-0.42189 0.264965,-0.17592 0.544602,-0.32835 0.819409,-0.48842 0.224255,-0.12739 0.419195,-0.29629 0.619872,-0.45597 0.199387,-0.14049 0.365954,-0.30724 0.511926,-0.49978 0.0993,-0.14626 0.177553,-0.30335 0.250239,-0.46408 0.112984,-0.30898 0.242932,-0.61174 0.353278,-0.92167 0.108124,-0.30478 0.206569,-0.61405 0.276408,-0.92979 0.07551,-0.28848 0.112727,-0.58333 0.139021,-0.87948 0.0265,-0.33179 0.03297,-0.66205 0.03925,-0.99469 0.0059,-0.36477 0.0086,-0.73212 0.0098,-1.09692 10e-4,-0.34886 -1.81e-4,-0.69775 0,-1.04662 1.55e-4,-0.35673 0.0016,-0.7126 0.0016,-1.06933 2.1e-5,-0.34102 -5e-6,-0.68288 0,-1.0239 -0.01282,-0.42216 0.02146,-0.842 0.08341,-1.25919 0.06139,-0.42239 0.166137,-0.83384 0.274772,-1.2462 0.09833,-0.33771 0.192217,-0.67848 0.302576,-1.01254 0.05096,-0.1454 0.09588,-0.29368 0.134115,-0.44299 0.01091,-0.12646 0.114802,-0.48949 0.158648,-0.64257 0.06153,-0.1711 0.127552,-0.34395 0.192995,-0.51114 0.08937,-0.24378 0.204461,-0.47776 0.336922,-0.70099 0.0315,-0.0543 0.05737,-0.10056 0.0736,-0.12819 0.0068,-0.0124 0.0154,-0.0256 0.02453,-0.0422 0.0043,-0.01 0.01,-0.0194 0.01472,-0.0292 0.01144,-0.0208 0.02452,-0.0448 0.03925,-0.0714 v -0.002 -0.002 h -0.0016 c 0.0505,-0.10962 0.09785,-0.21874 0.155376,-0.3294 0.07762,-0.13966 0.113799,-0.20821 0.191359,-0.35212 0.103269,-0.18461 0.233845,-0.36021 0.323839,-0.49329 0.06229,-0.0867 0.124268,-0.1739 0.188088,-0.25962 v -10.7047 c -0.693623,-0.17996 -1.437926,-0.70678 -2.085323,-1.68432 -0.128055,-0.19336 -0.261522,-0.37991 -0.348371,-0.59714 -0.09844,-0.24126 -0.197086,-0.4847 -0.25351,-0.74805 -0.05567,-0.2782 -0.108054,-0.55777 -0.117759,-0.84216 -0.0089,-0.15773 -0.02436,-0.31583 -0.04743,-0.4722 -0.01625,-0.11933 -0.06357,-0.27007 -0.03925,-0.38457 -0.02638,-0.10301 -0.07328,-0.18784 -0.11776,-0.28396 v -0.003 -0.003 -0.002 l 0.0016,-0.002 h 0.0016 v -0.002 c -0.163408,-0.23695 -0.320632,-0.47891 -0.508655,-0.69775 -0.268221,-0.28774 -0.544055,-0.56849 -0.843942,-0.82431 -0.08548,-0.0657 -0.165203,-0.13841 -0.255145,-0.19796 -0.268461,-0.17774 -0.560264,-0.32402 -0.843942,-0.47544 -0.457578,-0.2072 -0.924165,-0.39808 -1.422926,-0.48356 -0.765726,-0.1359 -1.535763,-0.24048 -2.301215,-0.37808 -0.660425,-0.13108 -1.320745,-0.28016 -1.941394,-0.54683 -0.14413,-0.062 -0.287628,-0.12771 -0.428513,-0.19635 -0.253204,-0.0271 -0.505983,-0.054 -0.758894,-0.086 -0.550122,-0.0622 -1.099435,-0.13626 -1.648631,-0.20607 -0.586467,-0.0674 -1.171692,-0.14107 -1.756578,-0.22069 -0.484813,-0.0581 -0.969134,-0.11959 -1.455637,-0.16226 -0.404738,-0.0332 -0.810987,-0.0465 -1.216846,-0.0568 -0.312909,-0.007 -0.625829,-0.0108 -0.938804,-0.013 -0.257397,-0.002 -0.514579,-0.002 -0.771979,-0.003 -0.25405,-2.6e-4 -0.508115,4e-5 -0.762164,0 -0.259568,-4e-5 -0.518953,0 -0.778521,0 -0.256243,-1e-5 -0.512463,0 -0.768707,0 -0.302402,0.004 -0.604541,9.8e-4 -0.906093,-0.0227 -0.16684,-0.019 -0.33441,-0.0301 -0.502113,-0.0373 -0.31262,-0.003 -0.618908,-0.0631 -0.922448,-0.13144 -0.22595,-0.05 -0.415016,-0.10723 -0.621508,-0.16875 -0.312817,-0.0935 0.328819,0.0869 -0.215892,-0.0665 -0.01781,-0.005 0.04345,0.0138 0.06542,0.0211 -0.0476,-0.01 -0.09522,-0.0235 -0.142293,-0.0357 -0.0869,-0.0252 -0.174943,-0.0445 -0.264959,-0.0535 -0.08723,-0.008 -0.174173,-0.0106 -0.261687,-0.013 -0.233824,0.002 -0.465802,-0.0201 -0.696743,-0.0552 -0.193954,-0.0275 -0.394872,-0.042 -0.580619,-0.10871 -0.16341,-0.0587 -0.320444,-0.13326 -0.480851,-0.19959 -0.191334,-0.0791 -0.350153,-0.15589 -0.480851,-0.23042 z m 2.914545,0.70099 h 0.0016 v 0.002 h -0.0016 z" /><rect
           width="1418.3359"
           height="265.93832"
           rx="62.329292"
           fill="#394aab"
           id="rect1"
           x="-188.828"
           y="-10.293257"
           style="display:inline;opacity:1;stroke-width:1.03882"
           transform="matrix(0.15701251,0,0,-0.15577552,56.273261,398.7603)"
           mask="url(#mask24)"
           sodipodi:insensitive="true" /><path
           d="m 49.92,387.3 c 0,-5.937 -3.726,-11.54 -10.94,-12.77 l 10.16,-11.88 1.014,1.346 18.28,25.65 v 1.33941 A 9.5305899,9.5305899 135 0 1 58.90341,400.516 H 38.864 c 7.334,-1.231 11.06,-7.172 11.06,-13.22 z"
           style="fill:#f6b21a"
           id="path2"
           inkscape:original-d="m 49.92,387.3 c 0,-5.937 -3.726,-11.54 -10.94,-12.77 l 10.16,-11.88 1.014,1.346 18.28,25.65 v 10.87 h -29.57 c 7.334,-1.231 11.06,-7.172 11.06,-13.22 z"
           inkscape:path-effect="#path-effect23" /><g
           id="g1"
           transform="matrix(0.15701251,0,0,-0.15577552,56.273261,398.7603)" /><path
           style="display:inline;opacity:1;fill:#243a6d;fill-opacity:1;stroke-width:0.112847;stroke-dasharray:none"
           d="M 10.023529,49.825082 C 9.2722165,49.716816 7.9504909,49.334012 7.1460683,48.9917 3.3553116,47.378588 0.70831963,43.809653 0.19792572,39.623529 0.06027369,38.494542 0.05441634,11.752572 0.19155575,10.541176 0.29748327,9.6054854 0.65530732,8.153746 0.93693195,7.5170868 l 0.18189525,-0.4112044 5.0641159,0.00214 c 7.0047959,0.00295 7.9700949,0.103457 9.8641159,1.0270134 1.659674,0.809285 2.870563,2.0234862 3.713636,3.7237932 0.706653,1.425176 0.886388,2.233581 0.889337,4 0.0021,1.233077 -0.03108,1.582611 -0.214151,2.258776 -0.844665,3.119743 -3.117991,5.381953 -6.193331,6.163048 -1.12449,0.285605 -1.962232,0.327426 -6.5954912,0.329252 l -4.7294117,0.0019 0.00246,1.717646 0.00246,1.717647 9.0328319,10.905052 c 4.968057,5.997779 9.032831,10.921307 9.032831,10.941176 0,0.07457 -10.423893,0.0097 -10.964706,-0.0682 z"
           id="path25"
           transform="matrix(0.83740003,0,0,-0.83080278,26.564,400.47)" /><path
           style="display:inline;opacity:1;fill:#243a6d;fill-opacity:1;stroke-width:0.112847;stroke-dasharray:none"
           d="m 33.035294,49.879611 c 0,-0.164093 2.077174,-3.139605 8.960656,-12.835972 4.247643,-5.983413 7.783128,-10.942463 7.85663,-11.02011 0.115493,-0.122006 0.128836,0.79179 0.09826,6.729412 -0.03401,6.604166 -0.04312,6.903435 -0.234923,7.717647 -1.01675,4.316247 -3.883222,7.544126 -7.892201,8.887259 -1.457511,0.48831 -2.281229,0.570766 -5.706065,0.571186 -1.695294,2.08e-4 -3.082353,-0.02203 -3.082353,-0.04942 z"
           id="path26"
           transform="matrix(0.83740003,0,0,-0.83080278,26.564,400.47)"
           sodipodi:nodetypes="sssscssss" /></g><path
         style="fill:#243a6d;fill-opacity:1;stroke-width:0.00936719"
         d="m 0.0686907,14.724609 c 0.0021164,-2.395547 0.0054516,-3.359638 0.01199301,-3.466797 0.01502887,-0.246194 0.03213202,-0.467897 0.04876738,-0.632154 0.008667,-0.08558 0.014001,-0.16017 0.0118539,-0.165766 -0.002147,-0.0056 -4.4946e-4,-0.01231 0.003773,-0.01492 0.004222,-0.0026 0.007563,-0.01591 0.007424,-0.02955 -1.3907e-4,-0.01364 0.001222,-0.03535 0.003024,-0.04824 0.001802,-0.01289 0.005588,-0.04277 0.008414,-0.06641 0.0118874,-0.09943 0.0952028,-0.5272323 0.14834866,-0.7617287 C 0.38143585,9.2339439 0.5020973,8.7901963 0.57357875,8.578116 0.61624145,8.4515388 0.61071985,8.479355 0.53248275,8.7851472 0.35444119,9.4810278 0.21272258,10.234243 0.1841085,10.63671 0.1517254,11.092189 0.1214948,13.52843 0.108275,16.748038 L 0.102958,18.04296 H 0.08435769 0.065759 Z"
         id="path5"
         transform="matrix(0.83740003,0,0,-0.83080278,26.564,400.47)" /><path
         style="fill:#243a6d;fill-opacity:1;stroke-width:0.00936719"
         d="m 0.00395492,15.060547 c 5.324e-5,-3.262332 4.1582e-4,-3.291799 0.0473198,-3.845703 0.0214166,-0.252916 0.07594862,-0.715225 0.08347687,-0.707697 0.00163,0.0016 -0.006014,0.106158 -0.0169862,0.232283 -0.04801618,0.55194 -0.04467208,0.283394 -0.04913957,3.946117 l -0.0040951,3.357422 H 0.03421847 0.00390625 Z"
         id="path6"
         transform="matrix(0.83740003,0,0,-0.83080278,26.564,400.47)" /><path
         style="fill:#243a6d;fill-opacity:1;stroke-width:0.0066236"
         d="M 0.00276214,34.156572 V 30.502266 H 0.0386699 0.07457767 v 3.654306 3.654306 H 0.0386699 0.00276214 Z"
         id="path7"
         transform="matrix(0.83740003,0,0,-0.83080278,26.564,400.47)" /><path
         style="fill:#243a6d;fill-opacity:1;stroke-width:0.0066236"
         d="m 0.07457767,34.156572 v -3.654306 h 0.01289868 0.01289869 l 0.003746,1.211197 c 0.006603,2.134916 0.0230886,4.521495 0.0401813,5.817058 l 0.003699,0.280357 H 0.11128955 0.07457767 Z"
         id="path8"
         transform="matrix(0.83740003,0,0,-0.83080278,26.564,400.47)" /><path
         style="fill:#243a6d;fill-opacity:1;stroke-width:0.0066236"
         d="M 0.00276214,28.513529 V 26.524791 H 0.0386699 0.07457767 v 1.988738 1.988737 H 0.0386699 0.00276214 Z"
         id="path9"
         transform="matrix(0.83740003,0,0,-0.83080278,26.564,400.47)" /><path
         style="fill:#243a6d;fill-opacity:1;stroke-width:0.0066236"
         d="m 0.07457767,28.513529 c 0,-1.684503 0.0011629,-1.988738 0.0076019,-1.988738 0.0064264,0 0.0081801,0.24197 0.01134039,1.56475 0.0020561,0.860612 0.0042286,1.755545 0.0048277,1.988738 l 0.0010892,0.423989 -0.01242961,-1e-6 -0.01242961,-1e-6 z"
         id="path10"
         transform="matrix(0.83740003,0,0,-0.83080278,26.564,400.47)" /><path
         style="fill:#243a6d;fill-opacity:1;stroke-width:0.0066236"
         d="M 0.00276214,24.536053 V 22.547315 H 0.0386699 0.07457767 v 1.988738 1.988738 H 0.0386699 0.00276214 Z"
         id="path11"
         transform="matrix(0.83740003,0,0,-0.83080278,26.564,400.47)" /><path
         style="fill:#243a6d;fill-opacity:1;stroke-width:0.0066236"
         d="m 0.08456878,26.606274 c -0.0010407,-0.07747 -0.0011114,-0.07789 -0.0044668,-0.02624 -0.0018752,0.02886 -0.0038852,-0.866689 -0.0044668,-1.990118 -9.3828e-4,-1.812432 -1.2369e-4,-2.0426 0.007229,-2.0426 0.0073509,0 0.0082864,0.233554 0.0082864,2.06884 0,1.137862 -0.001243,2.06884 -0.0027621,2.06884 -0.0015192,0 -0.003238,-0.03543 -0.0038196,-0.07872 z"
         id="path12"
         transform="matrix(0.83740003,0,0,-0.83080278,26.564,400.47)" /><path
         style="fill:#243a6d;fill-opacity:1;stroke-width:0.0066236"
         d="M 0.00276214,20.558577 V 18.569839 H 0.0386699 0.07457767 v 1.988738 1.988738 H 0.0386699 0.00276214 Z"
         id="path13"
         transform="matrix(0.83740003,0,0,-0.83080278,26.564,400.47)" /><path
         style="fill:#243a6d;fill-opacity:1;stroke-width:0.0066236"
         d="m 0.08548855,22.60532 -0.0019772,-0.05524 -0.0034094,0.05248 c -0.0018752,0.02886 -0.0038852,-0.866689 -0.0044668,-1.990119 l -0.0010574,-2.0426 H 0.0871279 0.09967804 l -0.0019666,1.031658 c -0.0025174,1.320641 -0.0096581,3.075483 -0.01222285,3.003823 z"
         id="path14"
         transform="matrix(0.83740003,0,0,-0.83080278,26.564,400.47)" /><path
         style="fill:#243a6d;fill-opacity:1;stroke-width:0.0066236"
         d="M 0.00276214,18.307437 V 18.045034 H 0.0386699 0.07457767 v 0.262403 0.262402 H 0.0386699 0.00276214 Z"
         id="path15"
         transform="matrix(0.83740003,0,0,-0.83080278,26.564,400.47)" /><path
         style="fill:#243a6d;fill-opacity:1;stroke-width:0.0066236"
         d="m 0.07457767,18.307437 v -0.262403 h 0.01381068 0.01381068 v 0.262403 0.262402 H 0.08838835 0.07457767 Z"
         id="path16"
         transform="matrix(0.83740003,0,0,-0.83080278,26.564,400.47)" /><path
         style="fill:#243a6d;fill-opacity:1;stroke-width:0.0066236"
         d="M 0.70732819,41.939205 C 0.53084482,41.424909 0.42303862,41.055988 0.32393195,40.627192 0.24971523,40.306086 0.16740237,39.883473 0.16788987,39.826036 c 7.008e-5,-0.0083 -0.002088,-0.01638 -0.004797,-0.01806 -0.002708,-0.0017 -0.003519,-0.0117 -0.001803,-0.02228 0.001883,-0.01161 8.4881e-4,-0.01923 -0.002609,-0.01923 -0.003151,0 -0.004554,-0.0045 -0.003117,-0.01 0.001437,-0.0055 -0.002456,-0.05335 -0.00865,-0.106342 C 0.09269465,39.186318 0.06930185,38.721627 0.06913365,38.105045 l -8.025e-5,-0.294167 h 0.03808182 0.0380818 l 0.003236,0.08977 c 0.00178,0.04937 0.004609,0.194178 0.006287,0.321789 0.006221,0.473131 0.0189801,0.98378 0.0305741,1.223626 0.008129,0.168167 0.0376779,0.400798 0.0915235,0.720541 0.096796,0.57479 0.23078831,1.126803 0.40620069,1.673441 0.0242352,0.07552 0.0429448,0.138435 0.041577,0.139803 -0.001368,0.0014 -0.009147,-0.01692 -0.0172868,-0.04064 z"
         id="path17"
         transform="matrix(0.83740003,0,0,-0.83080278,26.564,400.47)" /><path
         style="fill:#243a6d;fill-opacity:1;stroke-width:0.0066236"
         d="M 0.12547482,39.564834 C 0.0503967,39.030311 0.01511432,38.578204 0.00487079,38.019419 L 0.00104785,37.810878 H 0.03505062 0.0690534 l 6.831e-5,0.31074 c 1.3005e-4,0.591592 0.01962604,1.001224 0.06955403,1.461406 0.007678,0.07077 0.0130869,0.13292 0.0120189,0.138107 -0.001068,0.0052 -0.012417,-0.06515 -0.0252198,-0.156297 z"
         id="path18"
         transform="matrix(0.83740003,0,0,-0.83080278,26.564,400.47)" /><path
         style="fill:#243a6d;fill-opacity:1;stroke-width:0.0066236"
         d="m 11.634116,49.991477 c -0.396892,-0.0162 -0.792528,-0.04987 -1.160097,-0.09872 -0.127555,-0.01695 -0.389659,-0.05718 -0.387385,-0.05945 0.0011,-0.0011 0.04523,5.08e-4 0.09803,0.0036 0.422243,0.0248 2.215988,0.05372 4.479513,0.07224 0.886215,0.0072 2.539055,0.01633 2.984488,0.01641 l 0.346648,5.6e-5 v 0.03314 0.03315 l -3.103259,6.1e-5 c -1.706793,3.3e-5 -3.111961,10e-4 -3.122595,0.0022 -0.01063,0.0012 -0.07154,-3.5e-5 -0.135345,-0.0026 z"
         id="path19"
         transform="matrix(0.83740003,0,0,-0.83080278,26.564,400.47)" /><path
         style="fill:#243a6d;fill-opacity:1;stroke-width:0.0066236"
         d="m 17.995315,49.958751 v -0.03314 l 0.843833,-6.7e-5 c 1.132058,-8.9e-5 2.019482,-0.01072 2.12132,-0.02542 0.01291,-0.0019 0.02348,-0.006 0.02348,-0.0092 0,-0.007 -0.07193,-0.09612 -0.433304,-0.537114 -0.431421,-0.52648 -1.728878,-2.100993 -2.628898,-3.190267 l -0.207684,-0.251355 0.03095,-0.0017 c 0.01702,-9.25e-4 0.03276,3.18e-4 0.03497,0.0028 0.0022,0.0024 0.759161,0.916776 1.682106,2.03185 0.922945,1.115075 1.681849,2.031758 1.686454,2.037076 0.008,0.0092 -0.0674,0.0097 -1.572426,0.0097 h -1.580798 z"
         id="path20"
         transform="matrix(0.83740003,0,0,-0.83080278,26.564,400.47)" /><path
         style="fill:#243a6d;fill-opacity:1;stroke-width:0.00468359"
         d="m 17.446654,45.588642 c -0.489752,-0.592863 -2.912769,-3.523344 -2.92441,-3.536884 -0.0055,-0.0064 -0.0041,-0.0068 0.02378,-0.0068 h 0.02965 l 1.596206,1.927709 c 0.877913,1.06024 1.598439,1.929942 1.601168,1.932672 0.004,0.004 -0.0012,0.0051 -0.0273,0.0057 l -0.03226,6.96e-4 z"
         id="path21"
         transform="matrix(0.83740003,0,0,-0.83080278,26.564,400.47)" /><path
         style="fill:#243a6d;fill-opacity:1;stroke-width:0.00468359"
         d="M 14.260878,41.736328 C 13.98916,41.407829 11.872441,38.851305 11.747312,38.7005 c -0.04042,-0.04871 -0.07348,-0.08958 -0.07348,-0.09082 0,-0.0012 0.01274,-0.0022 0.02832,-0.0021 l 0.02832,1.97e-4 1.419922,1.715184 c 0.780957,0.943351 1.420458,1.716552 1.421114,1.718223 6.56e-4,0.0017 -0.01117,0.0036 -0.02628,0.0043 l -0.02747,0.0013 z"
         id="path22"
         transform="matrix(0.83740003,0,0,-0.83080278,26.564,400.47)" /><path
         style="fill:#243a6d;fill-opacity:1;stroke-width:0.00468359"
         d="M 10.644122,37.368164 C 10.079726,36.686572 9.6134185,36.123995 9.6078826,36.117992 l -0.010065,-0.01092 0.03153,0.0011 0.03153,0.0011 1.0187634,1.230469 c 0.560321,0.676758 1.025703,1.238818 1.034183,1.249023 l 0.01542,0.01855 h -0.02947 -0.02947 z"
         id="path23"
         transform="matrix(0.83740003,0,0,-0.83080278,26.564,400.47)" /><path
         style="fill:#243a6d;fill-opacity:1;stroke-width:0.00468359"
         d="M 9.5340452,36.02832 C 9.4979402,35.98481 9.0353673,35.42627 8.5061062,34.787109 7.9768452,34.147949 7.5401682,33.620968 7.535713,33.616039 l -0.0081,-0.009 0.031615,0.0011 0.031615,0.0011 1.02833,1.242187 c 0.5655815,0.683204 1.0310102,1.245264 1.034286,1.249024 0.00561,0.0064 0.0042,0.0068 -0.023905,0.0068 H 9.599693 Z"
         id="path27"
         transform="matrix(0.83740003,0,0,-0.83080278,26.564,400.47)" /><path
         style="fill:#243a6d;fill-opacity:1;stroke-width:0.00468359"
         d="m 5.984375,31.743681 c -0.8486328,-1.0248 -1.5471092,-1.868519 -1.5521698,-1.87493 l -0.0092,-0.01166 0.031354,0.0011 0.031354,0.0011 1.5476054,1.869141 c 0.8511829,1.028027 1.5493882,1.871338 1.5515673,1.874023 0.00311,0.0038 -0.00266,0.0048 -0.02679,0.0046 l -0.030752,-2.34e-4 z"
         id="path28"
         transform="matrix(0.83740003,0,0,-0.83080278,26.564,400.47)" /><path
         style="fill:#243a6d;fill-opacity:1;stroke-width:0.00936719"
         d="m 3.6748476,28.954288 -0.7464728,-0.901181 -0.0052,-0.764175 c -0.00286,-0.420296 -0.0052,-0.948163 -0.0052,-1.173038 v -0.408863 h 0.023437 0.023437 v 1.156676 1.156676 l 0.751217,0.907777 c 0.4131693,0.499278 0.7546154,0.912172 0.7587691,0.917543 0.00575,0.0074 2.655e-4,0.0098 -0.022979,0.0098 h -0.030531 z"
         id="path29"
         transform="matrix(0.83740003,0,0,-0.83080278,26.564,400.47)" /><path
         style="fill:#243a6d;fill-opacity:1;stroke-width:0.00936719"
         d="m 2.9179687,25.160156 v -0.546875 l 2.5800782,-2.2e-4 c 5.4113401,-4.62e-4 6.6734991,-0.02126 7.6113281,-0.125431 0.239569,-0.02661 0.629633,-0.08606 0.693872,-0.105754 0.01224,-0.0038 0.01385,-2.82e-4 0.01172,0.02533 -0.0029,0.03434 0.01929,0.02701 -0.207755,0.06874 -0.491018,0.09023 -0.996587,0.145274 -1.548617,0.168606 -0.116261,0.0049 -1.81748,0.0078 -4.6386721,0.0078 l -4.4550782,1.8e-5 v 0.527343 0.527344 h -0.023437 -0.023437 z"
         id="path30"
         transform="matrix(0.83740003,0,0,-0.83080278,26.564,400.47)" /><path
         style="fill:#243a6d;fill-opacity:1;stroke-width:0.0187344"
         d="m 5.6796875,19.171875 v -5.476563 h 7.3893305 7.38933 l 0.01782,0.08203 c 0.120493,0.554525 0.171968,1.222179 0.171967,2.230468 -2e-6,1.075539 -0.04002,1.462498 -0.21932,2.120497 -0.174855,0.641701 -0.37827,1.172697 -0.672118,1.754503 -1.057482,2.093768 -2.858359,3.600526 -5.12389,4.287059 -0.232042,0.07032 -0.629813,0.172148 -0.743038,0.190221 -0.04383,0.007 -0.0679,0.02046 -0.07813,0.0437 -0.01202,0.02734 -0.04094,0.03857 -0.155399,0.06036 -0.396611,0.07552 -0.919728,0.137757 -1.414063,0.168243 -0.160108,0.0099 -1.452469,0.01593 -3.4101558,0.01597 l -3.1523437,7.2e-5 z"
         id="path31"
         transform="matrix(0.83740003,0,0,-0.83080278,26.564,400.47)" /><path
         style="fill:#243a6d;fill-opacity:1;stroke-width:0.0187344"
         d="m 13.820312,24.406852 c 0,-0.01345 0.02408,-0.02866 0.05859,-0.037 0.494364,-0.119532 0.64624,-0.160369 0.893006,-0.240116 1.33495,-0.431412 2.463279,-1.114153 3.415867,-2.06691 1.063628,-1.063816 1.825953,-2.397417 2.242044,-3.922199 0.191854,-0.703059 0.210041,-0.886682 0.210468,-2.125 3.46e-4,-1.004235 -0.0089,-1.225544 -0.07124,-1.710938 -0.01712,-0.133203 -0.0473,-0.324804 -0.06708,-0.425781 -0.02682,-0.136926 -0.03105,-0.183594 -0.01663,-0.183594 0.04311,0 0.171797,0.710726 0.236225,1.304688 0.03868,0.356546 0.03869,1.393233 2.4e-5,1.75 -0.129747,1.197163 -0.421713,2.201262 -0.933658,3.210937 -0.988176,1.948916 -2.613929,3.375598 -4.698457,4.123138 -0.270121,0.09687 -0.624503,0.201483 -0.956662,0.282407 -0.286706,0.06985 -0.3125,0.07318 -0.3125,0.04037 z"
         id="path32"
         transform="matrix(0.83740003,0,0,-0.83080278,26.564,400.47)" /><path
         style="fill:#243a6d;fill-opacity:1;stroke-width:0.0187344"
         d="M 20.42905,13.563802 C 20.249395,12.820231 19.741457,11.708262 19.215875,10.907942 18.549514,9.8932537 17.739761,9.1148923 16.695312,8.485096 16.42536,8.3223164 15.799945,8.0078716 15.457922,7.8629636 14.454037,7.4376391 13.497112,7.2646185 11.679687,7.1798246 10.873175,7.1421959 10.114482,7.1282117 8.3046875,7.117617 6.4866973,7.1069744 6.5432243,7.106519 9.28125,7.1097505 c 1.931883,0.00228 2.974351,0.00914 3.109375,0.020448 0.583598,0.048895 0.982802,0.1013359 1.397824,0.1836243 1.538239,0.3049945 2.84169,0.9126819 3.97023,1.8509776 0.249873,0.2077499 0.759396,0.7172727 0.967145,0.9671456 0.801155,0.963593 1.37209,2.061748 1.702324,3.274304 0.08416,0.309016 0.08234,0.299479 0.05707,0.299479 -0.01463,0 -0.03324,-0.047 -0.05617,-0.141927 z"
         id="path33"
         transform="matrix(0.83740003,0,0,-0.83080278,26.564,400.47)" /><path
         style="fill:#243a6d;fill-opacity:1;stroke-width:0.00936719"
         d="m 49.850283,39.641023 c 0.06273,-0.742146 0.0816,-2.277304 0.111646,-9.084382 0.0051,-1.153861 0.0057,-1.19336 0.01972,-1.19336 0.01404,0 0.01445,0.124324 0.01443,4.388672 -1.1e-5,2.759975 -0.0029,4.456806 -0.0077,4.572266 -0.01927,0.45835 -0.05311,0.831497 -0.118497,1.30664 -0.01163,0.08448 -0.0265,0.0922 -0.01956,0.01016 z"
         id="path34"
         transform="matrix(0.83740003,0,0,-0.83080278,26.564,400.47)" /><path
         style="fill:#243a6d;fill-opacity:1;stroke-width:0.00936719"
         d="m 44.507494,33.441921 c 0.01017,-0.01646 5.475295,-7.708133 5.481674,-7.714968 0.004,-0.0043 0.0062,0.801637 0.0053,1.925781 -8.94e-4,1.063262 -0.0035,1.882227 -0.0059,1.819922 -0.0042,-0.113491 -0.01371,-0.134354 -0.01772,-0.03906 -0.0012,0.02793 -0.0046,-0.511719 -0.0076,-1.199219 -0.0063,-1.445125 -0.01632,-1.871789 -0.04948,-2.099595 -0.01066,-0.07325 -0.02775,-0.123061 -0.04223,-0.123061 -0.01572,0 -0.07313,0.07802 -0.681246,0.925781 -0.428972,0.598019 -1.52232,2.129331 -2.359528,3.304687 -0.524556,0.736426 -2.129589,2.992447 -2.246885,3.158204 -0.02914,0.04119 -0.03818,0.04883 -0.05776,0.04883 -0.01277,0 -0.02118,-0.0033 -0.0187,-0.0073 z"
         id="path35"
         transform="matrix(0.83740003,0,0,-0.83080278,26.564,400.47)" /><path
         style="fill:#243a6d;fill-opacity:1;stroke-width:0.00936719"
         d="m 40.966532,38.423828 c 0.03551,-0.04704 3.526586,-4.962727 3.535696,-4.978516 0.005,-0.0086 0.0091,-0.01123 0.0093,-0.0059 1.31e-4,0.0054 0.0073,0.0098 0.01586,0.0098 0.0086,0 0.01563,0.0019 0.01563,0.0042 0,0.0023 -0.616182,0.87154 -1.369292,1.931641 -0.753111,1.060101 -1.550279,2.183066 -1.771485,2.495477 -0.395281,0.55826 -0.402644,0.568026 -0.42851,0.568359 l -0.02632,3.4e-4 z"
         id="path36"
         transform="matrix(0.83740003,0,0,-0.83080278,26.564,400.47)" /><path
         style="fill:#243a6d;fill-opacity:1;stroke-width:0.00936719"
         d="m 36.09695,45.279253 c 0.01735,-0.02473 1.115558,-1.570727 2.440469,-3.435547 1.951835,-2.74722 2.412535,-3.391094 2.427942,-3.393283 0.01046,-0.0015 0.02341,-0.0063 0.02878,-0.01072 0.0054,-0.0044 0.0098,-0.0059 0.0098,-0.0033 0,0.0026 -0.271325,0.387084 -0.602945,0.854472 -1.284201,1.809966 -3.312217,4.677003 -4.111641,5.812689 l -0.155356,0.220703 h -0.03428 -0.03428 z"
         id="path37"
         transform="matrix(0.83740003,0,0,-0.83080278,26.564,400.47)" /><path
         style="fill:#243a6d;fill-opacity:1;stroke-width:0.00936719"
         d="m 33.878261,48.435547 c 0.07025,-0.124459 0.385423,-0.577404 1.199864,-1.724358 l 0.984375,-1.386266 0.0332,-3.52e-4 c 0.01826,-1.94e-4 0.0332,0.0013 0.0332,0.0033 0,0.002 -0.09956,0.145269 -0.22124,0.318359 -0.624261,0.887996 -1.399323,1.998668 -1.774742,2.543225 l -0.179084,0.259766 h -0.04165 c -0.0374,0 -0.04086,-0.0014 -0.03393,-0.01367 z"
         id="path38"
         transform="matrix(0.83740003,0,0,-0.83080278,26.564,400.47)" /><path
         style="fill:#243a6d;fill-opacity:1;stroke-width:0.00936719"
         d="m 32.886719,49.992247 c 0,-0.0021 0.211528,-0.335221 0.470062,-0.740234 0.258534,-0.405014 0.481767,-0.755724 0.496073,-0.779357 0.01431,-0.02363 0.02602,-0.03857 0.02603,-0.0332 1.3e-5,0.0064 0.01227,0.0098 0.03518,0.0098 0.01934,0 0.03516,0.0016 0.03516,0.0036 0,0.002 -0.06198,0.09429 -0.137728,0.205078 -0.214279,0.313389 -0.555588,0.828578 -0.643257,0.970962 -0.09529,0.154756 -0.138755,0.239636 -0.128151,0.250239 0.01048,0.01048 0.22937,0.02174 0.616167,0.03171 0.499294,0.01286 3.456851,0.01853 4.076318,0.0078 1.238515,-0.02143 1.91346,-0.06465 2.519726,-0.161329 0.131347,-0.02095 0.149112,-0.02252 0.13794,-0.0122 -0.01095,0.01011 -0.357187,0.07468 -0.608984,0.113573 -0.424544,0.06557 -0.859428,0.107469 -1.34375,0.129473 -0.173009,0.0079 -5.550781,0.0118 -5.550781,0.0041 z"
         id="path39"
         transform="matrix(0.83740003,0,0,-0.83080278,26.564,400.47)" /></g></g></svg>
